<svg width="1275" height="347" xmlns="http://www.w3.org/2000/svg" xmlns:xlink="http://www.w3.org/1999/xlink" overflow="hidden"><defs><clipPath id="clip0"><rect x="2" y="186" width="1275" height="347"/></clipPath><clipPath id="clip1"><rect x="3" y="187" width="1274" height="346"/></clipPath><clipPath id="clip2"><rect x="3" y="187" width="1274" height="346"/></clipPath><clipPath id="clip3"><rect x="3" y="187" width="1274" height="346"/></clipPath><clipPath id="clip4"><rect x="3" y="187" width="1274" height="346"/></clipPath></defs><g clip-path="url(#clip0)" transform="translate(-2 -186)"><g clip-path="url(#clip1)"><g clip-path="url(#clip2)"><g clip-path="url(#clip3)"><g clip-path="url(#clip4)"><path d="M422 334.5C422 299.982 449.758 272 484 272 518.242 272 546 299.982 546 334.5 546 369.018 518.242 397 484 397 449.758 397 422 369.018 422 334.5Z" stroke="#FFFFFF" stroke-width="4" stroke-linecap="butt" stroke-linejoin="miter" stroke-miterlimit="8" stroke-opacity="1" fill="none" fill-rule="evenodd"/><text fill="#FFFFFF" fill-opacity="1" font-family="Courier,Courier_MSFontService,sans-serif" font-style="normal" font-variant="normal" font-weight="400" font-stretch="normal" font-size="120" text-anchor="start" direction="ltr" writing-mode="lr-tb" unicode-bidi="normal" text-decoration="none" transform="translate(448.788 371)">1</text><path d="M562 334.5C562 299.982 589.982 272 624.5 272 659.018 272 687 299.982 687 334.5 687 369.018 659.018 397 624.5 397 589.982 397 562 369.018 562 334.5Z" stroke="#FFFFFF" stroke-width="4" stroke-linecap="butt" stroke-linejoin="miter" stroke-miterlimit="8" stroke-opacity="1" fill="none" fill-rule="evenodd"/><text fill="#FFFFFF" fill-opacity="1" font-family="Courier,Courier_MSFontService,sans-serif" font-style="normal" font-variant="normal" font-weight="400" font-stretch="normal" font-size="120" text-anchor="start" direction="ltr" writing-mode="lr-tb" unicode-bidi="normal" text-decoration="none" transform="translate(588.888 371)">2</text><path d="M704 334.5C704 299.982 731.76 272 766 272 800.24 272 828 299.982 828 334.5 828 369.018 800.24 397 766 397 731.76 397 704 369.018 704 334.5Z" stroke="#FFFFFF" stroke-width="4" stroke-linecap="butt" stroke-linejoin="miter" stroke-miterlimit="8" stroke-opacity="1" fill="none" fill-rule="evenodd"/><text fill="#FFFFFF" fill-opacity="1" font-family="Courier,Courier_MSFontService,sans-serif" font-style="normal" font-variant="normal" font-weight="400" font-stretch="normal" font-size="120" text-anchor="start" direction="ltr" writing-mode="lr-tb" unicode-bidi="normal" text-decoration="none" transform="translate(730.64 371)">3<tspan fill="#FFFFFF" fill-opacity="1" font-family="Courier,Courier_MSFontService,sans-serif" font-style="normal" font-variant="normal" font-weight="400" font-stretch="normal" font-size="160" text-anchor="start" direction="ltr" writing-mode="lr-tb" unicode-bidi="normal" text-decoration="none" x="86.4822" y="8">.</tspan><tspan fill="#FFFFFF" fill-opacity="1" font-family="Courier,Courier_MSFontService,sans-serif" font-style="normal" font-variant="normal" font-weight="400" font-stretch="normal" font-size="160" text-anchor="start" direction="ltr" writing-mode="lr-tb" unicode-bidi="normal" text-decoration="none" x="-630.943" y="18">R</tspan><tspan fill="#FFFFFF" fill-opacity="1" font-family="Courier,Courier_MSFontService,sans-serif" font-style="normal" font-variant="normal" font-weight="400" font-stretch="normal" font-size="160" text-anchor="start" direction="ltr" writing-mode="lr-tb" unicode-bidi="normal" text-decoration="none" x="-525.443" y="18">C</tspan><tspan fill="#FFFFFF" fill-opacity="1" font-family="Courier,Courier_MSFontService,sans-serif" font-style="normal" font-variant="normal" font-weight="400" font-stretch="normal" font-size="160" text-anchor="start" direction="ltr" writing-mode="lr-tb" unicode-bidi="normal" text-decoration="none" x="-419.944" y="18">V</tspan><tspan fill="#FFFFFF" fill-opacity="1" font-family="Courier,Courier_MSFontService,sans-serif" font-style="normal" font-variant="normal" font-weight="400" font-stretch="normal" font-size="160" text-anchor="start" direction="ltr" writing-mode="lr-tb" unicode-bidi="normal" text-decoration="none" x="160.402" y="18">org</tspan></text></g></g></g></g></g></svg>